<?xml version="1.0" encoding="utf-8"?>
<!-- Generator: Adobe Illustrator 25.2.0, SVG Export Plug-In . SVG Version: 6.00 Build 0)  -->
<svg version="1.1" id="Livello_1" xmlns="http://www.w3.org/2000/svg" xmlns:xlink="http://www.w3.org/1999/xlink" x="0px" y="0px"
	 viewBox="0 0 1366 295" style="enable-background:new 0 0 1366 295;" xml:space="preserve">
<style type="text/css">
	.st0{fill:#FFFFFF;}
	.st1{fill:#161616;}
</style>
<path class="st0" d="M1310,169.9c-2.8,7.8-8.9,12.9-19.9,12.9c-11.7,0-21.9-8-22.5-19.1h68.8c0.2-0.6,0.6-5.2,0.6-9.3
	c0-31.8-18.9-50.7-49.5-50.7c-25.6,0-49.3,20.3-49.3,52.1c0,33.2,24.3,52.7,51.5,52.7c25.1,0,40.8-14.3,45.5-31.4L1310,169.9z
	 M1268.2,144.3c0.6-7.4,7-16.7,19.7-16.7c14.3,0,19.5,9.1,19.9,16.7H1268.2z M1218.7,61.5h-30.2v144h30.2V61.5z M1138.8,156
	c0,16.5-10.5,24.7-22.3,24.7c-11.7,0-22.5-8.3-22.5-24.7c0-16.7,10.7-24.5,22.5-24.5C1128.2,131.5,1138.8,139.3,1138.8,156
	 M1094,205.5v-11.1c4.6,7.6,14.7,13.3,27.8,13.3c27.6,0,47.1-21.7,47.1-51.9c0-29.6-17.3-51.5-45.9-51.5c-13.5,0-24.5,5.6-28.6,11.7
	V61.5h-29.6v144H1094z M991.8,186.4c-8.4,0-11.7-5-11.7-10.1c0-7,4.8-9.9,11.1-10.9l18.7-3v4.4C1009.9,182,1000.8,186.4,991.8,186.4
	 M950.3,178.3c0,15.7,12.5,30,34.2,30c13.1,0,22.7-5.6,27.8-13.9c0,6.8,0.8,10.3,1,11.1h27.2c-0.2-1-1.2-7.6-1.2-15.3v-48.3
	c0-20.3-11.7-38.2-43.7-38.2c-29,0-42.2,18.7-43.3,32.8l26.2,5.4c0.6-7.4,6.4-14.5,16.9-14.5c9.5,0,14.5,5,14.5,10.7
	c0,3.4-1.8,6-7.2,6.8l-23.3,3.6C963.2,150.8,950.3,160.8,950.3,178.3 M883.1,243.5l60.8-136.8h-32L890,159.6L866,106.7h-33.8
	l41.6,85.5l-22.5,51.3H883.1z M821.2,106.7c-2-0.6-5-1-8-1c-8,0-20.5,3.2-25.7,14.3v-13.3h-29.2v98.8h30.2v-43.1
	c0-19.7,10.9-26.8,23.1-26.8c3,0,6.2,0.2,9.5,1V106.7z M711.9,169.9c-2.8,7.8-8.9,12.9-19.9,12.9c-11.7,0-21.9-8-22.5-19.1h68.8
	c0.2-0.6,0.6-5.2,0.6-9.3c0-31.8-18.9-50.7-49.5-50.7c-25.6,0-49.3,20.3-49.3,52.1c0,33.2,24.3,52.7,51.5,52.7
	c25.1,0,40.8-14.3,45.5-31.4L711.9,169.9z M670.1,144.3c0.6-7.4,7-16.7,19.7-16.7c14.3,0,19.5,9.1,19.9,16.7H670.1z M592.8,205.5h29
	c-0.2-1.6-1-8.7-1-17.7v-81.1h-30.2v56.3c0,9.9-6.4,16.9-16.5,16.9c-10.7,0-15.9-7.6-15.9-17.1v-56.1h-30.2v62.4
	c0,21.1,13.5,38.6,37.6,38.6c9.9,0,21.3-3.6,26.4-12.1C592,198.1,592.4,203.7,592.8,205.5 M395.5,134.9c0-29.4,21.1-42.8,40.8-42.8
	c19.5,0,40.6,13.3,40.6,42.8c0,9.1-2,16.5-5.4,22.7l-20.7-22.7l-20.9,17.5l20.7,22.7c-4.8,1.6-9.5,2.4-14.3,2.4
	C416.6,177.5,395.5,164.3,395.5,134.9 M362.9,135.1c0,44.5,33.6,73.4,73.4,73.4c13.1,0,25.9-3.2,36.6-9.1l17.3,19.1l20.7-17.5
	L493.5,182c9.9-12.1,15.9-28,15.9-46.9c0-44.7-33.6-73.6-73.2-73.6C396.5,61.5,362.9,90.4,362.9,135.1"/>
<path class="st0" d="M156.5,272.1c70.3,0,127.4-57,127.4-127.4c0-70.3-57-127.4-127.4-127.4S29.1,74.4,29.1,144.8
	C29.1,215.1,86.1,272.1,156.5,272.1"/>
<path class="st1" d="M156.5,240.3c52.8,0,95.5-42.8,95.5-95.5s-42.8-95.5-95.5-95.5S60.9,92,60.9,144.8S103.7,240.3,156.5,240.3"/>
<path class="st0" d="M156.5,208.5c35.2,0,63.7-28.5,63.7-63.7c0-35.2-28.5-63.7-63.7-63.7s-63.7,28.5-63.7,63.7
	C92.8,179.9,121.3,208.5,156.5,208.5"/>
<rect x="190.9" y="128.5" transform="matrix(0.7071 -0.7071 0.7071 0.7071 -77.845 204.4876)" class="st1" width="34" height="135.4"/>
<path class="st1" d="M172.7,161c6.6-6.6,6.6-17.4,0-24c-6.6-6.6-17.4-6.6-24,0c-6.6,6.6-6.6,17.4,0,24
	C155.3,167.6,166.1,167.6,172.7,161"/>
<path class="st0" d="M269.3,257.6c6.6-6.6,6.6-17.4,0-24c-6.6-6.6-17.4-6.6-24,0s-6.6,17.4,0,24C252,264.3,262.7,264.3,269.3,257.6"
	/>
</svg>
